<svg xmlns="http://www.w3.org/2000/svg" viewBox="0 0 512 512">
  <path fill="#e34f26" d="M107.6 470.9L74.9 100.6h362.2l-32.7 370.2L255.9 512z"/>
  <path fill="#ef652a" d="M256 480.5l120-33.3 28-314.4H256z"/>
  <path fill="#ebebeb" d="M256 268.2h-60.8l-4.2-46.6H256v-45.4H142.1l1.1 12.3 11.3 126H256zm0 117.9l-.2.1-50.6-13.7-3.2-36.2h-45.6l6.4 71.3 93 25.8.2-.1z"/>
  <path fill="#fff" d="M255.8 268.2v45.4h56.6l-5.3 59.6-51.3 13.7v47.2l93.1-25.8.7-7.7 10.7-119.4 1.1-12.9zM255.8 176.2v45.4h111.3l1-11 2.2-24.8 1.1-12.3z"/>
</svg>
